<svg xmlns="http://www.w3.org/2000/svg" xmlns:xlink="http://www.w3.org/1999/xlink" viewBox="0 0 64 64"><defs><style>.cls-1{fill:url(#linear-gradient);}.cls-2{fill:url(#linear-gradient-2);}</style><linearGradient id="linear-gradient" x1="16.71" y1="21.11" x2="54.22" y2="21.11" gradientUnits="userSpaceOnUse"><stop offset="0" stop-color="#41b06e" id="id_107"></stop><stop offset="1" stop-color="#141e46" id="id_108"></stop></linearGradient><linearGradient id="linear-gradient-2" x1="9.78" y1="42.91" x2="47.24" y2="42.91" xlink:href="#linear-gradient"></linearGradient></defs><g id="Layer_9" data-name="Layer 9"><path class="cls-1" d="M50.73,5.85a12,12,0,0,0-17,0l-13.5,13.5c-10.77,11.72,5.22,27.74,17,17l2.69-2.68A1.5,1.5,0,0,0,37.8,31.5l-2.69,2.69a9,9,0,0,1-8.54,2.36c-6.66-1.48-9.1-10.37-4.18-15.08L35.89,8A9,9,0,0,1,48.61,20.69l-3.17,3.18A1.5,1.5,0,0,0,47.56,26l3.17-3.18A12,12,0,0,0,50.73,5.85Z" id="id_105"></path><path class="cls-2" d="M35.26,24.17a11.92,11.92,0,0,0-8.49,3.52l-2.68,2.68a1.5,1.5,0,1,0,2.12,2.13l2.68-2.69c8.75-8.11,20.84,4,12.73,12.72L28.12,56c-8.77,8.1-20.83-4-12.73-12.72l3.18-3.18A1.5,1.5,0,0,0,16.45,38l-3.18,3.18a12,12,0,1,0,17,17l13.5-13.5C51.27,37.2,45.84,24.11,35.26,24.17Z" id="id_106"></path></g></svg>